<svg height="496pt" viewBox="0 0 496 496" width="496pt" xmlns="http://www.w3.org/2000/svg">
<path d="m488 81.519531c0 19.511719-7.761719 38.234375-21.519531 52l-194.480469 194.480469-33.921875-33.921875 194.480469-194.476563c4.722656-4.722656 7.441406-11.363281 7.441406-18.082031 0-14.078125-11.441406-25.519531-25.519531-25.519531-6.71875 0-13.359375 2.71875-18.082031 7.441406l-194.476563 194.480469-33.921875-33.921875 194.480469-194.480469c6.878906-6.878906 14.960937-12.238281 23.839843-15.917969 8.878907-3.679687 18.398438-5.601562 28.160157-5.601562 20.238281 0 38.640625 8.238281 52 21.519531 13.28125 13.359375 21.519531 31.761719 21.519531 52zm0 0" fill="#ccc"/>
<path d="m258.71875 410.71875c8.488281 8.488281 13.28125 20 13.28125 32 0 12.488281-5.039062 23.839844-13.28125 32-8.160156 8.242188-19.511719 13.28125-32 13.28125-12 0-23.511719-4.800781-32-13.28125l-26.796875-26.796875c.398437-.242187.71875-.5625 1.039063-.882813l63.039062-63.039062zm0 0" fill="#c4a852"/>
<path d="m272 328-120-120h-32l-16 16v24l-16 16h-24l-39.039062 39.039062c-10.882813 10.882813-16.960938 25.601563-16.960938 40.960938s6.078125 30.078125 16.960938 40.960938l62.078124 62.078124c10.882813 10.882813 25.601563 16.960938 40.960938 16.960938 14.878906 0 29.199219-5.679688 39.921875-16.078125.398437-.242187.71875-.5625 1.039063-.882813l71.039062-71.039062 48 16 24-16v-8zm-130.320312 98.320312c-3.679688 3.679688-8.558594 5.679688-13.679688 5.679688s-10-2-13.679688-5.679688l-68.640624-68.640624c-3.679688-3.679688-5.679688-8.558594-5.679688-13.679688s2-10 5.679688-13.679688l26.320312-26.320312 96 96zm0 0" fill="#617bc9"/>
<path d="m232 336v8l-56 24-24-24 40-40zm0 0" fill="#c4a852"/>
<path d="m160 272c0 8.835938-7.164062 16-16 16s-16-7.164062-16-16 7.164062-16 16-16 16 7.164062 16 16zm0 0" fill="#ccc"/>
<g fill="#1e1713">
<path d="m40 324.6875c-5.160156 5.152344-8 12.015625-8 19.3125s2.839844 14.160156 8 19.3125l68.679688 68.679688c5.152343 5.167968 12.015624 8.007812 19.320312 8.007812 7.296875 0 14.160156-2.839844 19.3125-8l32-32-107.3125-107.3125zm96 96c-4.28125 4.265625-11.734375 4.28125-16 0l-68.6875-68.6875c-2.136719-2.144531-3.3125-4.976562-3.3125-8s1.175781-5.855469 3.3125-8l20.6875-20.6875 84.6875 84.6875zm0 0"/>
<path d="m120 272c0 13.230469 10.769531 24 24 24s24-10.769531 24-24-10.769531-24-24-24-24 10.769531-24 24zm32 0c0 4.414062-3.585938 8-8 8s-8-3.585938-8-8 3.585938-8 8-8 8 3.585938 8 8zm0 0"/>
<path d="m174.167969 377.488281 65.832031-28.214843v-17.121094l-48.59375-38.871094-50.71875 50.71875zm18.425781-62.769531 30.496094 24.402344-45.257813 19.398437-14.519531-14.519531zm0 0"/><path d="m496 81.535156c0-44.960937-36.574219-81.535156-81.535156-81.535156-21.785156 0-42.257813 8.488281-57.65625 23.878906l-188.808594 188.808594-12.6875-12.6875h-38.625l-20.6875 20.6875v24l-11.3125 11.3125h-24l-41.375 41.375c-12.457031 12.457031-19.3125 29.007812-19.3125 46.625s6.855469 34.167969 19.3125 46.625l62.0625 62.0625c12.457031 12.457031 29.007812 19.3125 46.625 19.3125 14.449219 0 28.136719-4.679688 39.480469-13.207031l21.609375 21.605469c10.0625 10.066406 23.429687 15.601562 37.652344 15.601562 29.371093 0 53.257812-23.886719 53.257812-53.257812 0-14.222657-5.535156-27.589844-15.601562-37.652344l-18.773438-18.777344 43.558594 14.519531 30.816406-20.550781v-15.59375l-36.6875-36.6875 188.808594-188.808594c15.390625-15.390625 23.878906-35.871094 23.878906-57.65625zm-232 361.207032c0 20.546874-16.710938 37.257812-37.257812 37.257812-9.949219 0-19.300782-3.871094-26.34375-10.910156l-21.085938-21.089844 52.6875-52.6875 21.078125 21.078125c7.050781 7.050781 10.921875 16.402344 10.921875 26.351563zm22.824219-59.574219-48.984375-16.328125-74.519532 74.527344c-9.441406 9.441406-21.984374 14.632812-35.320312 14.632812s-25.878906-5.191406-35.3125-14.625l-62.0625-62.0625c-9.433594-9.433594-14.625-21.976562-14.625-35.3125s5.191406-25.878906 14.625-35.3125l36.6875-36.6875h24l20.6875-20.6875v-24l11.3125-11.3125h25.375l155.3125 155.3125zm-73.578125-125.230469 188.800781-188.800781c3.273437-3.265625 7.792969-5.136719 12.417969-5.136719 9.671875 0 17.535156 7.863281 17.535156 17.535156 0 4.617188-1.871094 9.144532-5.136719 12.410156l-188.800781 188.808594zm58.753906 58.75-22.625-22.625 188.816406-188.816406c6.234375-6.238282 9.808594-14.886719 9.808594-23.710938 0-18.488281-15.046875-33.535156-33.535156-33.535156-8.824219 0-17.472656 3.574219-23.722656 9.824219l-188.804688 188.800781-22.625-22.625 188.808594-188.808594c12.375-12.367187 28.832031-19.191406 46.34375-19.191406 36.136718 0 65.535156 29.398438 65.535156 65.535156 0 17.503906-6.824219 33.960938-19.191406 46.34375zm0 0"/>
</g></svg>

