<svg height="499pt" viewBox="0 -2 499.312 499" width="499pt" xmlns="http://www.w3.org/2000/svg">
<path d="m174.878906 390.914062-31.4375 32.5625-87.121094-87.121093 32.640626-31.359375zm0 0" fill="#c4a852"/>
<path d="m268.320312 315.714844c2.398438 6.402344 3.679688 13.28125 3.679688 20.320312 0 15.359375-6.078125 30.082032-16.960938 40.960938l-104.398437 104.398437c-4.242187 4.242188-10 6.640625-16 6.640625-6.242187 0-11.921875-2.558594-16-6.640625-4.082031-4.078125-6.640625-9.757812-6.640625-16v-.238281c0-5.839844 2.238281-11.441406 6.320312-15.679688l25.121094-26 31.4375-32.5625 49.121094-50.796874v-8.160157l-75.921875-75.921875h-8.15625l-50.960937 48.960938-32.640626 31.359375-9.761718 9.359375c-4.238282 4.082031-9.839844 6.320312-15.679688 6.320312h-.238281c-12.480469 0-22.640625-10.160156-22.640625-22.640625 0-6 2.398438-11.757812 6.640625-16l88.398437-88.398437c10.882813-10.878906 25.601563-16.960938 40.960938-16.960938 7.039062 0 13.921875 1.28125 20.320312 3.679688 7.679688 2.882812 14.71875 7.359375 20.640626 13.28125l70.078124 70.078125c5.921876 5.921875 10.402344 12.960937 13.28125 20.640625zm0 0" fill="#617bc9"/>
<path d="m464 72.035156-216 216-63.039062-63.039062c-5.921876-5.921875-12.960938-10.398438-20.640626-13.28125l192.238282-192.238282c15.121094-15.121093 39.761718-15.121093 54.882812 0zm0 0" fill="#ccd1d9"/>
<path d="m400 56.035156c0 8.835938-7.164062 16-16 16s-16-7.164062-16-16c0-8.835937 7.164062-16 16-16s16 7.164063 16 16zm0 0" fill="#c4a852"/>
<path d="m272 264.035156 24-24 24.003906 24-24.003906 24.003906zm0 0" fill="#e6e9ed"/>
<g fill="#969faa">
<path d="m344 192.039062 24-24.003906 24.003906 24.003906-24.003906 24zm0 0"/>
<path d="m296 288.035156-27.679688 27.679688c-2.878906-7.679688-7.359374-14.71875-13.28125-20.640625l-7.039062-7.039063 24-24zm0 0"/>
<path d="m296 240.035156 24-24 24.003906 24-24.003906 24.003906zm0 0"/>
<path d="m392 144.039062 24-24.003906 24.003906 24.003906-24.003906 24zm0 0"/>
</g>
<path d="m416 120.039062 24-24.003906 24.003906 24.003906-24.003906 24zm0 0" fill="#e6e9ed"/>
<path d="m320 216.035156 24-24 24.003906 24-24.003906 24.003906zm0 0" fill="#e6e9ed"/>
<path d="m368 168.039062 24-24.003906 24.003906 24.003906-24.003906 24zm0 0" fill="#e6e9ed"/>
<path d="m440 96.039062 24-24.003906 24.003906 24.003906-24.003906 24zm0 0" fill="#969faa"/>
<path d="m384 80.035156c13.230469 0 24-10.765625 24-24 0-13.230468-10.769531-24-24-24s-24 10.769532-24 24c0 13.234375 10.769531 24 24 24zm0-32c4.40625 0 8 3.59375 8 8 0 4.410156-3.59375 8-8 8s-8-3.589844-8-8c0-4.40625 3.59375-8 8-8zm0 0" fill="#1e1713"/>
<path d="m499.3125 96.035156-82.175781-82.175781c-18.265625-18.269531-48-18.269531-66.265625 0l-188.742188 188.738281c-5.824218-1.65625-11.90625-2.5625-18.128906-2.5625-17.617188 0-34.167969 6.855469-46.625 19.3125l-88.398438 88.398438c-5.792968 5.792968-8.976562 13.480468-8.976562 21.65625 0 16.898437 13.734375 30.632812 30.886719 30.632812 7.953125 0 15.488281-3.03125 21.226562-8.542968l4.09375-3.9375 76.03125 76.035156-19.628906 20.308594c-5.554687 5.738281-8.609375 13.296874-8.609375 21.503906 0 16.898437 13.734375 30.632812 30.632812 30.632812 8.175782 0 15.871094-3.183594 21.65625-8.976562l104.398438-104.398438c12.457031-12.457031 19.3125-29.007812 19.3125-46.625 0-6.222656-.902344-12.304687-2.558594-18.128906zm-238.625 193.375-1.375-1.375 12.6875-12.6875 12.6875 12.6875-14.121094 14.121094c-2.75-4.578125-6.007812-8.871094-9.878906-12.746094zm179.3125-182.0625 12.6875 12.6875-12.6875 12.6875-12.6875-12.6875zm-24 24 12.6875 12.6875-12.6875 12.6875-12.6875-12.6875zm-24 24 12.6875 12.6875-12.6875 12.6875-12.6875-12.6875zm-24 24 12.6875 12.6875-12.6875 12.6875-12.6875-12.6875zm-24 24 12.6875 12.6875-12.6875 12.6875-12.6875-12.6875zm-24 24 12.6875 12.6875-12.6875 12.6875-12.6875-12.6875zm-24 24 12.6875 12.6875-12.6875 12.6875-12.6875-12.6875zm168-142.625-12.6875-12.6875 12.6875-12.6875 12.6875 12.6875zm-101.824219-83.550781c12.03125-12.03125 31.609375-12.03125 43.640625 0l46.871094 46.863281-204.6875 204.6875-57.375-57.375c-3.871094-3.871094-8.175781-7.128906-12.746094-9.878906zm-294.433593 311.296875 21.097656-20.28125 74.847656 74.847656-20.335938 21.039063zm107.074218 43.0625-74.433594-74.429688 42.722657-41.066406h1.695312l71.199219 71.191406v1.6875zm74.558594-8.183594-104.398438 104.398438c-2.769531 2.769531-6.441406 4.289062-10.34375 4.289062-8.074218 0-14.632812-6.558594-14.632812-14.847656 0-3.816406 1.457031-7.421875 4.113281-10.167969l107.886719-111.632812v-14.78125l-80.566406-80.570313h-14.769532l-95.640624 91.921875c-2.734376 2.632813-6.335938 4.078125-10.390626 4.078125-8.074218 0-14.632812-6.558594-14.632812-14.632812 0-3.902344 1.519531-7.574219 4.289062-10.34375l88.398438-88.398438c9.433594-9.433594 21.976562-14.625 35.3125-14.625s25.878906 5.191406 35.3125 14.625l70.0625 70.0625c9.433594 9.433594 14.625 21.976563 14.625 35.3125 0 13.335938-5.191406 25.878906-14.625 35.3125zm0 0" fill="#1e1713"/></svg>